<svg width="1440" height="1024" viewBox="0 0 1440 1024" fill="none" xmlns="http://www.w3.org/2000/svg">
<mask id="mask0_890_3183" style="mask-type:luminance" maskUnits="userSpaceOnUse" x="0" y="-7" width="1447" height="1031">
<path d="M1447 -7H0V1024H1447V-7Z" fill="white"/>
</mask>
<g mask="url(#mask0_890_3183)">
<path d="M461.098 -1032.82L-516.547 789.375L-449.976 846.682L527.669 -975.518L461.098 -1032.82Z" fill="#CC5600"/>
<path d="M571.096 -928.193L-395.057 872.586L-330.991 927.736L635.161 -873.043L571.096 -928.193Z" fill="#CC5600"/>
<path d="M681.086 -823.561L-273.574 955.797L-212.014 1008.79L742.646 -770.569L681.086 -823.561Z" fill="#CC5600"/>
<path d="M791.078 -718.926L-152.085 1039L-93.0311 1089.84L850.132 -668.09L791.078 -718.926Z" fill="#CC5600"/>
<path d="M901.069 -614.294L-30.6016 1122.21L25.9403 1170.89L957.611 -565.621L901.069 -614.294Z" fill="#CC5600"/>
<path d="M1011.07 -509.665L90.8892 1205.42L144.925 1251.94L1065.1 -463.148L1011.07 -509.665Z" fill="#CC5600"/>
<path d="M1121.05 -405.031L212.366 1288.63L263.897 1332.99L1172.58 -360.672L1121.05 -405.031Z" fill="#CC5600"/>
<path d="M1231.05 -300.399L333.856 1371.84L382.881 1414.04L1280.07 -258.197L1231.05 -300.399Z" fill="#CC5600"/>
<path d="M1341.04 -195.776L455.344 1455.04L501.863 1495.09L1387.56 -155.731L1341.04 -195.776Z" fill="#CC5600"/>
<path d="M1451.03 -91.1401L576.829 1538.26L620.835 1576.14L1495.04 -53.2575L1451.03 -91.1401Z" fill="#CC5600"/>
<path d="M1561.02 13.4993L698.312 1621.47L739.813 1657.19L1602.52 49.2249L1561.02 13.4993Z" fill="#CC5600"/>
<path d="M1671.02 118.131L819.802 1704.68L858.798 1738.25L1710.01 151.699L1671.02 118.131Z" fill="#CC5600"/>
<path d="M1781 222.757L941.279 1787.88L977.769 1819.3L1817.49 254.168L1781 222.757Z" fill="#CC5600"/>
<path d="M1891 327.38L1062.77 1871.09L1096.76 1900.34L1924.99 356.635L1891 327.38Z" fill="#CC5600"/>
</g>
</svg>
