<svg width="1440" height="1024" viewBox="0 0 1440 1024" fill="none" xmlns="http://www.w3.org/2000/svg">
<g clip-path="url(#clip0_916_5003)">
<mask id="mask0_916_5003" style="mask-type:luminance" maskUnits="userSpaceOnUse" x="0" y="0" width="1447" height="1031">
<path d="M1447 0H0V1031H1447V0Z" fill="white"/>
</mask>
<g mask="url(#mask0_916_5003)">
<path d="M461.098 -1025.82L-516.547 796.375L-449.976 853.682L527.669 -968.518L461.098 -1025.82Z" fill="#98772E"/>
<path d="M571.096 -921.193L-395.057 879.586L-330.991 934.736L635.161 -866.043L571.096 -921.193Z" fill="#98772E"/>
<path d="M681.087 -816.561L-273.573 962.797L-212.014 1015.79L742.646 -763.569L681.087 -816.561Z" fill="#98772E"/>
<path d="M791.079 -711.926L-152.085 1046L-93.0308 1096.84L850.132 -661.09L791.079 -711.926Z" fill="#98772E"/>
<path d="M901.069 -607.294L-30.6016 1129.21L25.9403 1177.89L957.611 -558.621L901.069 -607.294Z" fill="#98772E"/>
<path d="M1011.07 -502.665L90.8892 1212.42L144.925 1258.94L1065.1 -456.148L1011.07 -502.665Z" fill="#98772E"/>
<path d="M1121.05 -398.031L212.366 1295.63L263.896 1339.99L1172.58 -353.672L1121.05 -398.031Z" fill="#98772E"/>
<path d="M1231.05 -293.399L333.856 1378.84L382.881 1421.04L1280.07 -251.197L1231.05 -293.399Z" fill="#98772E"/>
<path d="M1341.04 -188.776L455.344 1462.04L501.863 1502.09L1387.56 -148.731L1341.04 -188.776Z" fill="#98772E"/>
<path d="M1451.03 -84.1401L576.829 1545.26L620.835 1583.14L1495.04 -46.2575L1451.03 -84.1401Z" fill="#98772E"/>
<path d="M1561.02 20.4993L698.312 1628.47L739.813 1664.19L1602.52 56.2249L1561.02 20.4993Z" fill="#98772E"/>
<path d="M1671.02 125.131L819.802 1711.68L858.798 1745.25L1710.01 158.699L1671.02 125.131Z" fill="#98772E"/>
<path d="M1781 229.757L941.279 1794.88L977.769 1826.3L1817.49 261.168L1781 229.757Z" fill="#98772E"/>
<path d="M1891 334.38L1062.77 1878.09L1096.76 1907.34L1924.99 363.635L1891 334.38Z" fill="#98772E"/>
</g>
</g>
<defs>
<clipPath id="clip0_916_5003">
<rect width="1447" height="1031" fill="white"/>
</clipPath>
</defs>
</svg>
