<?xml version="1.0" encoding="UTF-8"?>
<svg id="Capa_2" data-name="Capa 2" xmlns="http://www.w3.org/2000/svg" viewBox="0 0 312.9 147.01">
  <defs>
    <style>
      .cls-1 {
        fill: #f46720;
      }

      .cls-1, .cls-2, .cls-3, .cls-4, .cls-5, .cls-6 {
        stroke-width: 0px;
      }

      .cls-2 {
        fill: #36c84d;
      }

      .cls-3 {
        fill: #121212;
      }

      .cls-4 {
        fill: #60f;
      }

      .cls-5 {
        fill: #f45094;
      }

      .cls-6 {
        fill: #00b7ff;
      }
    </style>
  </defs>
  <g id="Capa_1-2" data-name="Capa 1">
    <g>
      <path class="cls-3" d="M50.11,15.35c-1.28-3.05-3.08-5.71-5.39-7.97-2.31-2.26-5.05-4.06-8.22-5.39C33.33.67,29.86,0,26.09,0s-7.26.67-10.46,1.99c-3.19,1.33-5.95,3.15-8.25,5.46-2.31,2.31-4.12,4.99-5.42,8.04-.35.83-.66,1.67-.91,2.53h11.84c.65-1.34,1.47-2.54,2.46-3.62,1.28-1.4,2.82-2.49,4.62-3.29,1.79-.79,3.79-1.19,5.98-1.19s4.12.41,5.94,1.22c1.82.82,3.39,1.92,4.72,3.32,1.33,1.4,2.35,3.03,3.07,4.9.72,1.87,1.08,3.85,1.08,5.95v.14c0,2.1-.36,4.07-1.08,5.91-.72,1.84-1.72,3.46-3.01,4.86-1.28,1.4-2.83,2.5-4.65,3.29-1.82.8-3.8,1.19-5.94,1.19s-4.19-.41-5.98-1.22c-1.8-.82-3.36-1.92-4.68-3.32-1-1.05-1.83-2.24-2.48-3.55H.98c.26.91.58,1.8.94,2.68,1.28,3.05,3.07,5.71,5.39,7.97,2.31,2.26,5.05,4.06,8.21,5.39,3.17,1.33,6.65,1.99,10.42,1.99s7.26-.66,10.45-1.99,5.95-3.15,8.25-5.45,4.12-4.99,5.42-8.04c1.31-3.05,1.96-6.33,1.96-9.82v-.14c0-3.5-.64-6.77-1.92-9.83h0Z"/>
      <path class="cls-3" d="M93.75,49.79l-10.98-16.78-11.05,16.78h-12.24l17.06-24.9L60.18.84h12.59l10.28,15.88L93.4.84h12.24l-16.36,23.92,17.06,25.03h-12.59,0Z"/>
      <path class="cls-3" d="M147.93,10.56V.84h-34.13v48.95h10.77v-18.95h23.36v-9.72h-23.36v-10.56h23.36Z"/>
      <path class="cls-3" d="M208.61,35.15c-1.31,3.05-3.11,5.74-5.42,8.04s-5.06,4.12-8.25,5.46c-3.19,1.33-6.68,1.99-10.45,1.99s-7.25-.66-10.42-1.99c-3.17-1.33-5.91-3.12-8.22-5.39-2.31-2.26-4.1-4.92-5.39-7.97-1.28-3.05-1.92-6.33-1.92-9.83v-.14c0-3.5.65-6.77,1.96-9.83,1.31-3.05,3.11-5.74,5.42-8.04,2.31-2.31,5.06-4.12,8.25-5.46,3.19-1.33,6.68-1.99,10.45-1.99s7.25.66,10.42,1.99c3.17,1.33,5.91,3.12,8.22,5.39,2.31,2.26,4.1,4.92,5.38,7.97s1.92,6.33,1.92,9.83v.14c0,3.5-.65,6.77-1.96,9.83h0ZM199.31,25.32c0-2.1-.36-4.08-1.08-5.94-.72-1.87-1.75-3.5-3.08-4.9-1.33-1.4-2.9-2.5-4.72-3.32-1.82-.82-3.8-1.22-5.94-1.22s-4.18.4-5.98,1.19c-1.8.79-3.33,1.89-4.62,3.29-1.28,1.4-2.28,3.02-3.01,4.86-.72,1.84-1.08,3.81-1.08,5.91v.14c0,2.1.36,4.08,1.08,5.94.72,1.87,1.75,3.5,3.08,4.9,1.33,1.4,2.89,2.51,4.68,3.32s3.79,1.22,5.98,1.22,4.12-.4,5.94-1.19c1.82-.79,3.37-1.89,4.65-3.29,1.28-1.4,2.28-3.02,3.01-4.86.72-1.84,1.08-3.81,1.08-5.91v-.14h0Z"/>
      <path class="cls-3" d="M247.75,49.79l-10.49-15.66h-8.46v15.66h-10.77V.84h22.38c5.83,0,10.36,1.42,13.6,4.27,3.24,2.84,4.86,6.81,4.86,11.89v.14c0,3.96-.97,7.19-2.9,9.68-1.93,2.49-4.46,4.33-7.59,5.49l11.96,17.48h-12.59ZM247.96,17.56c0-2.33-.75-4.08-2.24-5.24-1.49-1.16-3.57-1.75-6.22-1.75h-10.7v14.06h10.91c2.66,0,4.7-.63,6.12-1.89s2.13-2.94,2.13-5.03v-.14h0Z"/>
      <path class="cls-3" d="M311.01,34.97c-1.26,2.99-3.04,5.57-5.35,7.76-2.31,2.19-5.06,3.92-8.25,5.18s-6.7,1.89-10.52,1.89h-19.09V.84h19.09c3.82,0,7.33.62,10.52,1.85,3.19,1.24,5.94,2.95,8.25,5.14,2.31,2.19,4.09,4.77,5.35,7.73s1.89,6.17,1.89,9.61v.14c0,3.45-.63,6.67-1.89,9.65h0ZM301.64,25.32c0-2.14-.36-4.12-1.08-5.94-.72-1.82-1.72-3.38-3.01-4.68s-2.83-2.32-4.65-3.04c-1.82-.72-3.82-1.09-6.01-1.09h-8.32v29.51h8.32c2.19,0,4.2-.35,6.01-1.05,1.82-.7,3.37-1.7,4.65-3.01,1.28-1.31,2.28-2.84,3.01-4.62.72-1.77,1.08-3.75,1.08-5.94v-.14h0Z"/>
      <circle class="cls-4" cx="6.19" cy="25.32" r="4.11"/>
      <path class="cls-2" d="M87.29,147.01v-78.21h58.88v15.31h-41.9v15.87h36.87v15.31h-36.87v16.43h42.46v15.31h-59.44,0Z"/>
      <path class="cls-5" d="M292.79,147.01l-16.76-25.03h-13.52v25.03h-17.21v-78.21h35.75c9.31,0,16.55,2.27,21.73,6.82,5.18,4.54,7.76,10.88,7.76,18.99v.22c0,6.33-1.55,11.49-4.64,15.47-3.09,3.99-7.13,6.91-12.12,8.77l19.11,27.93h-20.11,0ZM293.12,95.51c0-3.72-1.19-6.52-3.57-8.38-2.39-1.86-5.7-2.79-9.94-2.79h-17.09v22.46h17.43c4.25,0,7.5-1.01,9.78-3.02,2.27-2.01,3.41-4.69,3.41-8.04v-.22h0Z"/>
      <path class="cls-1" d="M206.11,68.24h-15.87l-33.52,78.77h17.55l10.19-25.03h44.51l-22.86-53.74h0ZM190.63,106.79l7.33-17.88,7.32,17.88h-14.65Z"/>
      <circle class="cls-6" cx="227.09" cy="138.79" r="8.22"/>
      <circle class="cls-6" cx="60.06" cy="86.5" r="8.22"/>
      <path class="cls-4" d="M77.29,107.87v.03c0,10.42-3.79,20.12-10.67,27.31-7,7.31-16.59,11.34-27,11.34-.33,0-.65,0-.97-.01-10.17-.24-19.74-4.26-27.01-11.37-7.5-7.33-11.63-17.01-11.63-27.26,0-20.93,17.23-38.03,38.65-38.63v16.15c-11.31.71-19.67,10.13-19.67,22.47s8.35,21.66,19.67,22.46c.52.04,1.05.06,1.58.06,9.11,0,13.46-5.35,15.53-10.42h-17.11v-14.91h38.47l.17,2.78h0Z"/>
    </g>
  </g>
</svg>