<?xml version="1.0" encoding="UTF-8"?>
<svg id="Capa_2" data-name="Capa 2" xmlns="http://www.w3.org/2000/svg" viewBox="0 0 355.61 167.08">
  <defs>
    <style>
      .cls-1 {
        fill: #fff;
        stroke-width: 0px;
      }
    </style>
  </defs>
  <g id="Capa_1-2" data-name="Capa 1">
    <g>
      <path class="cls-1" d="M56.95,17.45c-1.46-3.47-3.5-6.49-6.12-9.06-2.63-2.57-5.74-4.61-9.34-6.12C37.88.76,33.94,0,29.65,0s-8.25.76-11.88,2.26c-3.63,1.51-6.76,3.58-9.38,6.2-2.62,2.62-4.68,5.67-6.16,9.14-.4.94-.75,1.9-1.04,2.88h13.46c.74-1.52,1.68-2.89,2.8-4.11,1.46-1.59,3.2-2.83,5.25-3.74,2.04-.9,4.31-1.35,6.8-1.35s4.69.46,6.75,1.39c2.07.93,3.86,2.19,5.37,3.78,1.51,1.59,2.67,3.45,3.49,5.57s1.23,4.37,1.23,6.76v.16c0,2.38-.41,4.62-1.23,6.72s-1.96,3.93-3.42,5.52c-1.46,1.59-3.22,2.84-5.28,3.74-2.07.9-4.32,1.35-6.75,1.35s-4.76-.46-6.8-1.39c-2.04-.93-3.82-2.19-5.32-3.78-1.13-1.2-2.08-2.54-2.82-4.03H1.11c.3,1.03.66,2.05,1.07,3.04,1.46,3.47,3.49,6.49,6.12,9.06,2.62,2.57,5.74,4.61,9.33,6.12,3.61,1.51,7.55,2.26,11.85,2.26s8.25-.75,11.88-2.26c3.63-1.51,6.76-3.58,9.38-6.2,2.63-2.63,4.68-5.67,6.16-9.14,1.49-3.47,2.22-7.19,2.22-11.16v-.16c0-3.98-.73-7.7-2.18-11.17h0Z"/>
      <path class="cls-1" d="M106.55,56.59l-12.48-19.07-12.56,19.07h-13.91l19.39-28.29L68.4.96h14.31l11.68,18.04L106.15.96h13.91l-18.6,27.18,19.39,28.45h-14.31,0Z"/>
      <path class="cls-1" d="M168.12,12.01V.96h-38.79v55.63h12.24v-21.54h26.55v-11.05h-26.55v-12h26.55Z"/>
      <path class="cls-1" d="M237.08,39.94c-1.48,3.47-3.54,6.52-6.16,9.14-2.62,2.62-5.75,4.69-9.38,6.2-3.63,1.51-7.59,2.26-11.88,2.26s-8.24-.75-11.84-2.26c-3.6-1.51-6.72-3.55-9.34-6.12-2.62-2.57-4.66-5.59-6.12-9.06-1.46-3.47-2.18-7.19-2.18-11.17v-.16c0-3.97.74-7.7,2.22-11.17,1.48-3.47,3.54-6.52,6.16-9.14,2.62-2.62,5.75-4.69,9.38-6.2,3.63-1.51,7.59-2.27,11.88-2.27s8.24.75,11.84,2.27c3.6,1.51,6.72,3.55,9.34,6.12,2.62,2.57,4.66,5.59,6.12,9.06s2.18,7.19,2.18,11.17v.16c0,3.97-.74,7.7-2.22,11.17h0ZM226.51,28.78c0-2.38-.41-4.63-1.23-6.75-.82-2.12-1.99-3.97-3.5-5.56-1.51-1.59-3.3-2.85-5.36-3.78-2.07-.93-4.32-1.39-6.75-1.39s-4.76.45-6.79,1.35c-2.04.9-3.79,2.15-5.25,3.74-1.46,1.59-2.6,3.43-3.42,5.52-.82,2.09-1.23,4.33-1.23,6.72v.16c0,2.38.41,4.64,1.23,6.75.82,2.12,1.99,3.97,3.5,5.56,1.51,1.59,3.29,2.85,5.32,3.78s4.31,1.39,6.79,1.39,4.69-.45,6.75-1.35c2.07-.9,3.83-2.15,5.28-3.74,1.46-1.59,2.6-3.43,3.42-5.52.82-2.09,1.23-4.33,1.23-6.72v-.16h0Z"/>
      <path class="cls-1" d="M281.56,56.59l-11.92-17.8h-9.62v17.8h-12.24V.96h25.43c6.62,0,11.77,1.62,15.46,4.85,3.68,3.23,5.52,7.74,5.52,13.51v.16c0,4.5-1.1,8.17-3.3,11.01-2.2,2.84-5.07,4.92-8.62,6.24l13.59,19.87h-14.31ZM281.8,19.95c0-2.65-.85-4.63-2.54-5.96-1.7-1.32-4.05-1.99-7.07-1.99h-12.16v15.98h12.4c3.02,0,5.34-.72,6.95-2.15s2.42-3.34,2.42-5.72v-.16h0Z"/>
      <path class="cls-1" d="M353.47,39.74c-1.43,3.39-3.46,6.33-6.08,8.82-2.62,2.49-5.75,4.45-9.38,5.88s-7.62,2.15-11.96,2.15h-21.7V.96h21.7c4.34,0,8.33.7,11.96,2.11,3.63,1.4,6.75,3.35,9.38,5.84,2.62,2.49,4.65,5.42,6.08,8.78s2.15,7.01,2.15,10.93v.16c0,3.92-.72,7.58-2.15,10.97h0ZM342.82,28.78c0-2.44-.41-4.69-1.23-6.75-.82-2.07-1.96-3.84-3.42-5.32s-3.22-2.64-5.28-3.46-4.34-1.23-6.83-1.23h-9.46v33.54h9.46c2.49,0,4.77-.4,6.83-1.19,2.07-.79,3.83-1.93,5.28-3.42,1.46-1.48,2.6-3.23,3.42-5.25.82-2.01,1.23-4.27,1.23-6.75v-.16h0Z"/>
      <circle class="cls-1" cx="7.04" cy="28.78" r="4.67"/>
      <path class="cls-1" d="M99.2,167.08v-88.89h66.92v17.39h-47.62v18.03h41.9v17.39h-41.9v18.67h48.25v17.39h-67.55,0Z"/>
      <path class="cls-1" d="M332.75,167.08l-19.05-28.44h-15.36v28.44h-19.55v-88.89h40.63c10.58,0,18.81,2.58,24.7,7.75,5.88,5.16,8.82,12.36,8.82,21.59v.25c0,7.2-1.76,13.06-5.27,17.59-3.51,4.53-8.11,7.85-13.78,9.97l21.71,31.75h-22.86,0ZM333.13,108.54c0-4.23-1.35-7.41-4.06-9.53-2.71-2.11-6.48-3.17-11.3-3.17h-19.43v25.52h19.81c4.83,0,8.53-1.14,11.11-3.43,2.58-2.29,3.87-5.33,3.87-9.14v-.25h0Z"/>
      <path class="cls-1" d="M234.25,77.56h-18.03l-38.1,89.52h19.94l11.58-28.44h50.59l-25.98-61.08h0ZM216.65,121.37l8.33-20.32,8.32,20.32h-16.65Z"/>
      <circle class="cls-1" cx="258.08" cy="157.74" r="9.34"/>
      <circle class="cls-1" cx="68.25" cy="98.3" r="9.35"/>
      <path class="cls-1" d="M87.84,122.59v.04c0,11.85-4.31,22.87-12.13,31.04-7.95,8.31-18.85,12.89-30.68,12.89-.37,0-.74,0-1.1-.01-11.56-.27-22.43-4.84-30.7-12.93-8.53-8.33-13.22-19.33-13.22-30.98,0-23.79,19.58-43.22,43.92-43.9v18.36c-12.85.8-22.36,11.51-22.36,25.54s9.49,24.62,22.36,25.53c.59.05,1.19.06,1.8.06,10.35,0,15.29-6.08,17.65-11.84h-19.45v-16.95h43.72l.2,3.16h0Z"/>
    </g>
  </g>
</svg>