<svg width="436" height="243" viewBox="0 0 436 243" fill="none" xmlns="http://www.w3.org/2000/svg">
<path d="M157.501 163.19C157.791 163.8 157.821 164.42 157.591 165.06C157.361 165.7 156.941 166.16 156.331 166.45C155.721 166.74 155.091 166.77 154.451 166.54L148.071 164.24C147.431 164.01 146.971 163.59 146.681 162.98C146.401 162.37 146.361 161.74 146.591 161.1C146.821 160.46 147.251 160 147.861 159.71C148.471 159.43 149.101 159.4 149.741 159.62L156.121 161.92C156.761 162.15 157.221 162.58 157.501 163.19Z" fill="#FFDCB7"/>
<path d="M160.869 157.33C161.239 157.89 161.359 158.51 161.219 159.17C161.079 159.84 160.729 160.35 160.159 160.72C159.599 161.09 158.979 161.21 158.319 161.07L151.679 159.69C151.019 159.55 150.499 159.2 150.129 158.63C149.759 158.06 149.639 157.45 149.779 156.78C149.919 156.12 150.279 155.6 150.839 155.22C151.409 154.85 152.019 154.74 152.679 154.87L159.319 156.25C159.979 156.39 160.499 156.75 160.869 157.31V157.33Z" fill="#FFDCB7"/>
<path d="M160.999 148.83C161.569 149.2 161.919 149.71 162.049 150.38C162.189 151.05 162.069 151.66 161.699 152.23C161.329 152.8 160.809 153.15 160.149 153.29L153.509 154.67C152.849 154.8 152.229 154.69 151.659 154.32C151.099 153.95 150.739 153.43 150.599 152.77C150.469 152.1 150.579 151.49 150.949 150.92C151.319 150.36 151.839 150.01 152.499 149.86L159.139 148.48C159.809 148.35 160.419 148.47 160.979 148.84L160.999 148.83Z" fill="#FFDCB7"/>
<path d="M153.68 141.5C154.35 141.39 154.95 141.53 155.5 141.93C156.05 142.33 156.38 142.86 156.49 143.53C156.6 144.2 156.46 144.81 156.06 145.36L152.1 150.87C151.7 151.42 151.17 151.75 150.5 151.86C149.83 151.97 149.22 151.82 148.67 151.43C148.12 151.03 147.79 150.5 147.68 149.83C147.57 149.16 147.72 148.55 148.11 148L152.07 142.49C152.47 141.94 153.01 141.61 153.67 141.51L153.68 141.5Z" fill="#FFDCB7"/>
<path d="M173.821 150.82V155H167.141V150.27C169.361 150.45 171.591 150.63 173.821 150.82Z" fill="#00B6FF"/>
<path d="M435.529 150.62C423.739 161.21 411.959 171.81 400.089 182.46C394.709 175.83 389.389 169.28 383.939 162.56C401.219 158.48 418.329 154.45 435.429 150.41C435.459 150.48 435.489 150.55 435.519 150.62H435.529Z" fill="#7D30B9"/>
<path d="M433.64 150.42C431.44 150.88 429.24 151.34 427.04 151.8C412 154.96 396.97 158.12 381.93 161.26C381.37 161.38 381.03 161.64 380.74 162.13C378.75 165.46 376.74 168.78 374.74 172.11C374.63 172.3 374.5 172.48 374.23 172.64C374.13 167.56 374.03 162.48 373.94 157.32C391.24 155.28 408.35 153.27 425.47 151.25C425.47 151.2 425.47 151.16 425.47 151.11C425.25 151.12 425.02 151.14 424.79 151.16C408.01 152.59 391.23 154.02 374.46 155.47C373.64 155.54 372.94 155.43 372.23 154.96C367.81 152.01 363.36 149.09 358.93 146.16C358.66 145.99 358.41 145.79 358.17 145.46C383.33 147.08 408.48 148.71 433.64 150.34C433.64 150.37 433.64 150.39 433.65 150.42H433.64Z" fill="#7D30B9"/>
<path d="M387.049 169.53C383.339 171.08 379.719 172.58 376.099 174.08C376.039 174.02 375.989 173.95 375.939 173.89C378.179 170.47 380.419 167.05 382.749 163.49C384.219 165.55 385.589 167.47 387.049 169.52V169.53Z" fill="#7D30B9"/>
<path d="M226.521 95.38C223.661 97.61 221.901 100.54 220.501 103.64C218.761 107.47 217.191 111.37 215.681 115.3C214.621 118.04 214.421 118.19 211.561 116.57C213.191 111.48 214.801 106.47 216.411 101.46C216.461 101.3 216.541 101.15 216.611 101C218.161 97.15 221.131 94.72 224.891 92.78C225.431 93.64 225.981 94.51 226.521 95.38Z" fill="#00B6FF"/>
<path d="M205.871 143.86C202.481 150.72 196.811 153.96 189.611 154.69C186.841 154.97 184.011 154.74 180.951 154.74C180.951 154.19 181.001 153.6 180.931 153.01C180.811 151.85 181.351 151.25 182.451 151.36C185.451 151.66 188.201 150.62 190.991 149.86C195.351 148.68 199.571 147.14 202.361 143.24C202.951 142.41 203.561 142.37 204.341 142.91C204.851 143.25 205.381 143.56 205.871 143.86Z" fill="#00B6FF"/>
<path d="M344.761 167.61C344.511 168.38 344.221 169.27 343.961 170.09C343.731 170.17 343.611 170.27 343.531 170.24C336.801 167.65 329.851 165.51 323.861 161.29C322.581 160.39 321.391 159.37 320.181 158.38C319.171 157.55 320.071 156.89 320.441 156.21C320.831 155.51 321.251 155.12 322.181 155.61C326.071 157.69 330.011 159.67 333.911 161.73C337.501 163.64 341.051 165.6 344.761 167.61Z" fill="#00B6FF"/>
<path d="M274.41 113.02C273.29 114.04 272.52 114.75 271.46 115.71C267.73 112.42 263.91 109.08 260.14 105.69C259.88 105.45 259.73 104.7 259.9 104.43C260.53 103.46 261.32 102.6 262.3 101.38C266.41 105.33 270.35 109.12 274.41 113.02Z" fill="#00B6FF"/>
<path d="M293.09 129.98C292.03 131.16 291.07 132.23 289.89 133.55C285.88 129.78 281.96 126.09 278 122.36C280.26 119.66 280.41 119.47 282.63 121.18C286.18 123.92 289.5 126.93 293.09 129.98Z" fill="#00B6FF"/>
<path d="M313.09 150.99C312.16 152.12 311.2 152.44 310.09 151.51C306.84 148.77 303.65 145.96 300.24 143.01C301.36 141.77 302.25 140.78 303.29 139.62C304.58 140.74 305.79 141.78 306.99 142.84C308.95 144.6 310.88 146.39 312.85 148.13C313.88 149.04 314.01 149.86 313.09 150.99Z" fill="#00B6FF"/>
<path d="M249.669 93.93C248.989 95.42 248.429 96.63 247.999 97.57C243.899 96.62 239.989 95.73 236.079 94.82C234.349 94.42 234.699 93.01 234.709 91.82C234.719 90.57 235.599 90.42 236.589 90.47C241.129 90.68 245.389 91.92 249.669 93.93Z" fill="#00B6FF"/>
<path d="M362.771 172.74C362.611 173.33 362.741 174.04 362.461 174.55C362.211 175 361.511 175.6 361.131 175.52C356.961 174.7 352.801 173.75 348.381 172.78C348.871 171.07 349.251 169.8 349.661 168.39C350.581 168.58 351.391 168.73 352.201 168.91C355.321 169.63 358.431 170.4 361.561 171.06C362.581 171.28 363.081 171.62 362.771 172.74Z" fill="#00B6FF"/>
<path d="M212.629 126.39C211.889 129.14 211.099 131.89 210.419 134.66C210.109 135.9 209.629 136.3 208.309 135.85C205.719 134.98 205.669 135.04 206.339 132.41C207.109 129.37 207.919 126.34 208.719 123.32C208.869 122.74 209.089 122.18 209.249 121.69C209.539 121.65 209.659 121.6 209.759 121.63C212.359 122.25 213.316 123.837 212.629 126.39Z" fill="#00B6FF"/>
<path d="M300.6 137.75C299.76 138.6 299.03 139.35 298.2 140.19C296.06 138.19 293.94 136.22 291.73 134.17C292.47 133.35 293.14 132.62 294 131.66C296.32 133.81 298.46 135.77 300.6 137.75Z" fill="#00B6FF"/>
<path d="M260.31 100.88C260.18 101.22 260.15 101.38 260.07 101.5C259.01 102.993 257.723 103.24 256.21 102.24C254.59 101.17 252.96 100.1 251.16 98.91C251.67 97.95 252.15 97.05 252.77 95.9C255.49 97.7 257.9 99.29 260.31 100.88Z" fill="#00B6FF"/>
<path d="M104.35 209.15C105.36 206.96 107.4 205.61 110.47 205.1C113.54 204.59 116.71 204.48 119.97 204.76C120.98 204.85 121.95 204.98 122.87 205.14L123.95 205.35C125.84 205.64 127.44 206.08 128.77 206.65C131.98 208.13 133.71 210.64 133.94 214.18C134.14 217.3 132.72 219.56 129.68 220.95C126.97 222.2 123.23 222.65 118.47 222.31C116.17 222.11 114.13 221.75 112.34 221.23C110.58 220.71 109 220 107.63 219.1C106.04 218.11 104.92 216.67 104.27 214.78C104.06 214.19 103.91 213.6 103.83 213L103.77 212.26C103.66 211.27 103.86 210.22 104.36 209.13L104.35 209.15Z" fill="#FFDCB7"/>
<path d="M102.251 178.44C103.741 176.51 105.651 175.46 107.991 175.29C110.161 175.15 112.131 175.83 113.891 177.34C115.631 178.84 115.811 177.87 116.251 180.22L120.251 205.08C121.811 211.15 121.701 214.18 119.901 214.15C118.111 214.12 115.921 214.16 113.341 214.26C110.751 214.37 108.551 214.39 106.731 214.32C104.921 214.27 103.801 212.89 103.371 210.18C103.121 208.61 103.021 208.05 103.061 208.52L100.361 185.19C100.131 182.62 100.761 180.38 102.251 178.45V178.44Z" fill="#FFDCB7"/>
<path d="M68.4501 199.8C69.6301 197.62 69.6101 195.16 68.3801 192.41C67.1501 189.66 65.5601 187.09 63.6001 184.69C62.9901 183.95 62.3801 183.27 61.7601 182.64L61.0201 181.92C59.7901 180.61 58.6001 179.62 57.4401 178.94C54.5701 177.33 51.6901 177.54 48.7901 179.59C46.2401 181.4 45.2201 183.94 45.7401 187.21C46.2001 190.14 47.8201 193.37 50.6201 196.93C52.0001 198.62 53.3601 200.01 54.7201 201.1C56.0601 202.17 57.4601 202.96 58.8901 203.49C60.5101 204.12 62.2401 204.1 64.0601 203.42C64.6301 203.22 65.1801 202.96 65.6901 202.65L66.3001 202.24C67.1401 201.7 67.8501 200.88 68.4401 199.8H68.4501Z" fill="#FFDCB7"/>
<path d="M87.04 176.42C85 175.7 82.93 175.08 80.82 174.57C80.03 174.38 79.27 174.13 78.54 173.84L65.05 184.84C62.83 186.77 61.56 188.74 61.24 190.75C60.93 192.78 60.89 194.68 61.15 196.47C61.41 198.27 61.79 200.04 62.29 201.79C62.79 203.56 64.31 203.75 66.83 202.35C69.36 200.96 72.18 199.09 75.27 196.73L96.5 180.98C93.4 179.33 90.26 177.78 87.03 176.41L87.04 176.42Z" fill="#FFDCB7"/>
<path d="M116.729 179.8C116.549 185.99 113.319 189.21 106.999 189.38C99.5291 189.21 92.1191 188.2 84.7591 186.38C78.9091 184.91 76.7991 180.04 78.4091 171.76V171.74L78.4291 171.62L78.9391 168.99L85.6591 135.66L115.039 138.64L116.719 179.8H116.729Z" fill="#00B6FF"/>
<path d="M116.479 173.19L115.049 138.65L85.6692 135.67L78.9492 169C78.9492 169 114.989 173.81 116.519 174.02L116.489 173.2L116.479 173.19Z" fill="#6600FF"/>
<path d="M88.6004 29.72C82.6504 11.25 74.9904 3.84998 65.6104 7.49998C60.3704 9.57998 56.2804 15.02 53.3304 23.84C50.3404 32.79 48.6004 45.02 48.1004 60.52C47.6504 74.03 48.3604 92.05 50.1304 108.93C84.5504 108.42 99.3704 89.73 94.6604 58.53C93.5904 48.59 91.5604 38.99 88.5904 29.72H88.6004Z" fill="#FFDCB7"/>
<path d="M108.4 24.64C105.83 34.27 104.23 44.19 103.58 54.39C100.23 86.52 115.79 101.89 150.24 100.53C151.27 83.19 151.27 67.65 150.24 53.88C149.07 38.07 146.79 25.69 143.41 16.71C140.08 7.87002 135.75 2.53002 130.42 0.70002C120.88 -2.51998 113.54 5.46002 108.4 24.65V24.64Z" fill="#FFDCB7"/>
<path d="M135.141 39.7201C130.081 25.5901 125.451 19.5601 121.271 21.6201C118.911 22.8101 117.421 26.4801 116.821 32.6301C116.211 38.9201 116.521 47.6301 117.761 58.7801C118.821 68.2701 120.631 79.3401 123.171 91.9801C132.011 94.6001 137.921 93.3701 140.891 88.2801C143.861 83.2001 143.941 74.2501 141.141 61.4301C139.241 52.8901 137.241 45.6601 135.141 39.7301V39.7201Z" fill="#ECAB6B"/>
<path d="M80.5203 45.8201C78.0203 31.2201 74.5304 24.5701 70.0504 25.8601C67.5104 26.6201 65.4104 29.9301 63.7404 35.8101C62.0304 41.8201 60.8104 50.3501 60.0704 61.4101C59.4504 70.8201 59.2804 81.8901 59.5604 94.6201C67.8004 98.6701 73.8304 98.4701 77.6504 94.0301C81.4604 89.5901 83.1204 80.9001 82.6204 67.9501C82.2504 59.3201 81.5504 51.9401 80.5304 45.8201H80.5203Z" fill="#ECAB6B"/>
<path d="M51.6297 105.58C60.6197 97.8 75.5797 92.72 96.5097 90.34C117.07 88.16 132.31 89.42 142.21 94.15C150.26 97.99 154.66 104.05 155.42 112.31C155.66 114.88 155.28 117.62 154.3 120.53C152.97 124.44 150.67 128.02 147.41 131.25C146.04 132.6 144.54 133.87 142.89 135.05C139.86 137.23 136.34 139.13 132.36 140.74L131.1 141.22C130.99 141.27 130.88 141.31 130.78 141.35L129.28 141.89C124.67 143.5 119.48 144.76 113.72 145.69C109.96 146.29 105.96 146.75 101.72 147.07C79.4797 148.79 63.4397 146.85 53.6097 141.26C47.7097 137.9 44.2197 133.33 43.1397 127.56C42.9897 126.76 42.8797 125.95 42.8197 125.1C42.5297 121.91 42.9697 118.79 44.1497 115.75C44.2797 115.41 44.4197 115.07 44.5797 114.73C44.5797 114.71 44.5997 114.68 44.6197 114.65C44.6697 114.53 44.7297 114.4 44.7997 114.28C44.9397 113.99 45.0797 113.69 45.2397 113.4C45.2397 113.4 45.2397 113.38 45.2497 113.37C46.7397 110.57 48.8597 107.98 51.6097 105.59L51.6297 105.58Z" fill="#FFDCB7"/>
<path d="M89.9503 118.31C90.5603 116.08 92.1303 114.21 94.6603 112.7C97.1403 111.18 99.8403 110.47 102.76 110.57C104.08 110.61 105.32 110.89 106.49 111.39C107.34 111.76 108.35 112.35 109.54 113.16C110.86 114.07 111.53 116.81 111.52 121.35C111.52 125.9 111.39 129.38 111.11 131.77C110.83 134.17 110.54 135.83 110.23 136.76C109.91 137.69 109.37 138.67 108.61 139.7C107.84 140.73 107.18 141.46 106.61 141.9C106.03 142.33 105.32 142.74 104.47 143.11C103.63 143.49 102.82 143.79 102.04 144C101.25 144.21 100.36 144.29 99.3603 144.26C98.3703 144.23 97.2703 144.06 96.0903 143.75C94.8903 143.45 93.8303 142.81 92.8803 141.82C91.9303 140.85 91.0803 137.09 90.3403 130.56C89.6103 124.08 89.4803 119.99 89.9403 118.3L89.9503 118.31Z" fill="#FBC58A"/>
<path d="M96.1604 116.48C96.1204 115.86 96.8404 115.39 98.3104 115.08C98.8004 114.97 99.7304 114.85 101.09 114.72C101.97 114.64 102.83 114.65 103.66 114.78C104.97 114.96 105.69 115.39 105.82 116.06C105.98 116.8 105.53 117.57 104.46 118.37C103.48 119.14 102.56 119.55 101.69 119.61C100.7 119.68 99.6004 119.46 98.4004 118.93C96.9804 118.31 96.2304 117.49 96.1504 116.49L96.1604 116.48Z" fill="#3C0E07"/>
<path d="M120.04 203.78L116.36 180.96C111.19 181.02 106.02 180.99 100.85 180.98C100.39 182.26 100.23 183.66 100.36 185.17L102.79 206.22C108.53 205.32 114.27 204.52 120.03 203.77L120.04 203.78Z" fill="#00B6FF"/>
<path d="M87.0408 176.41C85.0008 175.69 82.9308 175.07 80.8208 174.56C80.0308 174.37 79.2708 174.12 78.5408 173.83L66.5508 183.62C69.4308 188.02 72.3108 192.41 75.1708 196.82C75.2108 196.79 75.2408 196.77 75.2808 196.74L96.5108 180.99C93.4108 179.34 90.2708 177.79 87.0408 176.42V176.41Z" fill="#00B6FF"/>
<path d="M78.9004 169.31L80.5304 161L116.42 169.11L116.51 174L78.9004 169.31Z" fill="#FFD5AD"/>
<path d="M129.276 133.504C134.002 132.193 137.076 128.403 136.143 125.04C135.21 121.676 130.622 120.013 125.896 121.324C121.171 122.636 118.096 126.425 119.03 129.789C119.963 133.152 124.551 134.815 129.276 133.504Z" fill="#FFC9EB"/>
<path d="M68.5275 139.298C73.2532 137.987 76.3274 134.197 75.3941 130.834C74.4607 127.47 69.8731 125.807 65.1474 127.118C60.4218 128.43 57.3475 132.219 58.2808 135.583C59.2142 138.946 63.8018 140.609 68.5275 139.298Z" fill="#FFC9EB"/>
<path d="M28.7996 138.73C35.2396 137.48 41.6896 136.22 48.1296 134.97C58.4096 132.97 68.6796 130.97 78.9596 128.98C81.3196 128.52 83.6896 128.06 86.0496 127.6C86.5696 127.5 87.6296 127.14 87.8396 126.58C88.0496 126.02 87.4896 126.01 87.0396 126.1C80.5996 127.35 74.1496 128.61 67.7096 129.86C57.4296 131.86 47.1596 133.86 36.8796 135.85C34.5196 136.31 32.1496 136.77 29.7896 137.23C29.2696 137.33 28.2096 137.69 27.9996 138.25C27.7896 138.81 28.3496 138.82 28.7996 138.73Z" fill="#ECAB6B"/>
<path d="M29.0496 144.82C35.3896 143.12 41.7296 141.41 48.0696 139.71C58.1796 136.99 68.2896 134.27 78.3996 131.55C80.7296 130.92 83.0496 130.3 85.3796 129.67C85.9096 129.53 86.9496 129.23 87.1696 128.65C87.3796 128.1 86.8196 128.05 86.3696 128.17C80.0296 129.87 73.6896 131.58 67.3496 133.28C57.2396 136 47.1296 138.72 37.0196 141.44C34.6896 142.07 32.3696 142.69 30.0396 143.32C29.5096 143.46 28.4696 143.76 28.2496 144.34C28.0396 144.89 28.5996 144.94 29.0496 144.82Z" fill="#ECAB6B"/>
<path d="M31.9295 153.51C38.0295 151.08 44.1295 148.66 50.2295 146.23C59.9595 142.36 69.6895 138.5 79.4195 134.63C81.6595 133.74 83.8995 132.85 86.1395 131.96C86.4495 131.84 87.4895 131.3 87.2795 130.84C87.0695 130.38 85.9495 130.84 85.6795 130.94C79.5795 133.37 73.4795 135.79 67.3795 138.22C57.6495 142.09 47.9195 145.95 38.1895 149.82C35.9495 150.71 33.7095 151.6 31.4695 152.49C31.1595 152.61 30.1195 153.15 30.3295 153.61C30.5395 154.07 31.6595 153.61 31.9295 153.51Z" fill="#ECAB6B"/>
<path d="M173.82 124.84C167.25 124.87 160.69 124.9 154.12 124.93C143.65 124.98 133.18 125.03 122.71 125.08C120.3 125.09 117.89 125.1 115.48 125.11C114.95 125.11 113.84 124.97 113.52 124.46C113.2 123.95 113.76 123.83 114.22 123.83C120.79 123.8 127.35 123.77 133.92 123.74C144.39 123.69 154.86 123.64 165.33 123.59C167.74 123.58 170.15 123.57 172.56 123.56C173.09 123.56 174.2 123.7 174.52 124.21C174.84 124.72 174.28 124.84 173.82 124.84Z" fill="#ECAB6B"/>
<path d="M174.77 130.86C168.22 130.43 161.67 129.99 155.12 129.56C144.67 128.87 134.23 128.18 123.78 127.49C121.38 127.33 118.97 127.17 116.57 127.01C116.02 126.97 114.94 126.89 114.61 126.36C114.3 125.86 114.83 125.7 115.31 125.73C121.86 126.16 128.41 126.6 134.96 127.03C145.41 127.72 155.85 128.41 166.3 129.1C168.7 129.26 171.11 129.42 173.51 129.58C174.06 129.62 175.14 129.7 175.47 130.23C175.78 130.73 175.25 130.89 174.77 130.86Z" fill="#ECAB6B"/>
<path d="M173.649 139.95C167.189 138.76 160.729 137.58 154.279 136.39C143.979 134.5 133.689 132.61 123.389 130.72C121.019 130.28 118.649 129.85 116.279 129.41C115.959 129.35 114.829 129.03 114.939 128.53C115.049 128.03 116.249 128.26 116.529 128.32C122.989 129.51 129.449 130.69 135.899 131.88L166.789 137.55C169.159 137.99 171.529 138.42 173.899 138.86C174.219 138.92 175.349 139.24 175.239 139.74C175.129 140.24 173.929 140.01 173.649 139.95Z" fill="#ECAB6B"/>
<path d="M98.9709 128.72C98.9709 128.72 104.711 129.3 107.221 135.28C107.221 135.28 109.191 138.54 112.041 135.68C114.901 132.82 111.121 129.16 111.121 129.16C111.121 129.16 107.621 126.14 106.481 126.14C105.341 126.14 102.761 126.79 101.901 126.89C101.041 126.99 98.9609 128.71 98.9609 128.71L98.9709 128.72Z" fill="#FF4361"/>
<path d="M90.4594 126.01C90.4594 126.01 90.3194 131.7 95.5094 130C100.699 128.3 103.019 125.47 106.029 126.04C109.039 126.61 110.589 127 110.729 125.11" stroke="#3C0E07" stroke-miterlimit="10"/>
<path d="M139.569 109.13C139.569 109.13 139.519 109.13 139.489 109.13L134.569 108.82C133.869 108.78 133.339 108.17 133.379 107.47C133.419 106.77 134.039 106.25 134.729 106.28L139.649 106.59C140.349 106.63 140.879 107.24 140.839 107.94C140.799 108.61 140.239 109.13 139.569 109.13Z" fill="#D19661"/>
<path d="M49.9502 107.14C49.9502 107.14 62.7302 94.1901 90.0202 91.2001" stroke="#ECAB6B" stroke-miterlimit="10"/>
<path d="M69.0298 107.07C69.4798 107.29 69.7498 107.79 69.6498 108.31C69.5298 108.93 68.9298 109.35 68.3098 109.23L63.9698 108.42C63.3498 108.31 62.9298 107.7 63.0498 107.08C63.1698 106.46 63.7698 106.04 64.3898 106.16L68.7298 106.97C68.8398 106.99 68.9398 107.02 69.0298 107.07Z" fill="#D19661"/>
<path d="M65.4809 101.85C65.4809 101.85 65.5209 101.87 65.5409 101.88L69.4109 104.1C69.9609 104.42 70.1509 105.12 69.8409 105.67C69.5209 106.22 68.8109 106.4 68.2709 106.1L64.4009 103.88C63.8509 103.56 63.6609 102.86 63.9709 102.31C64.2709 101.78 64.9409 101.58 65.4809 101.85Z" fill="#D19661"/>
<path d="M136.66 151.8H136.58L136.54 151.79L121.32 150.89C118.32 150.76 113.83 150.53 107.84 150.22L109.18 163.04L135.76 163.68C136.03 163.68 136.15 163.68 136.15 163.68H137.08C139.05 163.59 140.47 163.47 141.33 163.3C142.66 163.06 143.91 162.57 145.08 161.81C146.2 161.04 146.99 160.08 147.43 158.9C147.73 157.88 147.64 156.87 147.14 155.9C146.39 154.31 144.75 153.26 142.24 152.73C140.99 152.48 139.59 152.23 138.04 152L136.67 151.8H136.66Z" fill="#FFDCB7"/>
<path d="M137.86 161.22C139.5 162.93 141.51 163.81 143.89 163.86C146.26 163.91 148.3 163.11 150.01 161.48C151.72 159.84 152.61 157.83 152.66 155.45C152.71 153.08 151.91 151.04 150.27 149.33C148.63 147.62 146.62 146.73 144.25 146.68C141.87 146.63 139.83 147.43 138.11 149.07C136.4 150.71 135.52 152.72 135.47 155.09C135.41 157.47 136.21 159.51 137.85 161.22H137.86Z" fill="#FFD5AD"/>
<path d="M96.9499 149.16L89.2399 147.85C89.2399 147.85 78.9199 144.82 78.9199 153.67C78.9199 162.52 79.7199 164.08 86.4199 164.26L95.6899 164.52L119.27 166.53L116.51 150.65L96.9499 149.15V149.16Z" fill="#6600FF"/>
<path d="M116.341 151.18L88.4609 148.04" stroke="#520CBF" stroke-miterlimit="10"/>
<path d="M88.0198 109.06L87.8198 108.22C86.9898 105.01 85.2998 102.64 82.7598 101.11C81.2898 100.2 79.7598 99.72 78.1798 99.66C77.5598 99.66 76.8798 99.73 76.1298 99.86L74.8398 100.26C72.0498 101.22 69.9798 103.19 68.6098 106.17C68.1498 107.08 67.8198 108.07 67.6098 109.14C67.4798 109.73 67.3898 110.28 67.3698 110.79C67.2898 112.1 67.3698 113.32 67.6098 114.45L67.8098 115.41C68.6098 118.6 70.2998 120.95 72.8698 122.48C75.3898 124.03 78.0398 124.33 80.8298 123.36C82.9698 122.58 84.6498 121.27 85.8498 119.42L86.5698 118.29L87.5698 116C88.3198 113.81 88.4698 111.49 88.0098 109.05L88.0198 109.06Z" fill="white"/>
<path d="M79.85 106.81C78.86 108.28 78.34 110.08 78.31 112.2C78.28 114.32 78.73 116.14 79.69 117.66C80.64 119.16 81.8 119.92 83.18 119.94C84.56 119.96 85.74 119.24 86.74 117.77C87.73 116.28 88.25 114.48 88.28 112.35C88.31 110.23 87.86 108.41 86.9 106.92C85.95 105.4 84.79 104.64 83.41 104.62C82.03 104.6 80.85 105.33 79.85 106.82V106.81Z" fill="#330E00"/>
<path d="M116.171 166.27L97.3008 164.38" stroke="#520CBF" stroke-miterlimit="10"/>
<path d="M87.7192 104.86L66.6992 102.42L81.2292 97.86L87.7192 104.86Z" fill="#FFDCB7"/>
<path d="M133.5 105.7C132.95 105.7 132.44 105.33 132.28 104.77C132.09 104.1 132.48 103.39 133.16 103.2L137.84 101.88C138.51 101.69 139.22 102.08 139.41 102.76C139.6 103.43 139.21 104.14 138.53 104.33L133.85 105.65C133.74 105.68 133.62 105.7 133.51 105.7H133.5Z" fill="#D19661"/>
<path d="M121.68 98.8001L120.84 98.9401C117.65 99.5401 115.23 101.03 113.58 103.41C112.6 104.79 112.03 106.25 111.87 107.78C111.83 108.38 111.85 109.05 111.93 109.79L112.24 111.07C113 113.85 114.78 116 117.59 117.53C118.45 118.03 119.39 118.42 120.42 118.7C120.98 118.87 121.52 118.98 122.01 119.04C123.29 119.2 124.48 119.2 125.59 119.04L126.54 118.91C129.7 118.33 132.11 116.84 133.76 114.43C135.44 112.08 135.9 109.51 135.14 106.73C134.52 104.59 133.35 102.87 131.63 101.58L130.58 100.8L128.41 99.6701C126.32 98.8001 124.07 98.5001 121.66 98.7901L121.68 98.8001Z" fill="white"/>
<path d="M125.66 104.07C124.69 105.51 124.19 107.26 124.16 109.34C124.13 111.41 124.58 113.19 125.5 114.67C126.43 116.14 127.57 116.88 128.91 116.9C130.26 116.92 131.42 116.21 132.39 114.78C133.36 113.33 133.86 111.56 133.89 109.49C133.92 107.42 133.47 105.64 132.55 104.18C131.62 102.7 130.48 101.95 129.14 101.93C127.79 101.91 126.63 102.63 125.66 104.08V104.07Z" fill="#330E00"/>
<path d="M137.109 102.1L106.039 105.7L128.549 93.61L137.109 102.1Z" fill="#FFDCB7"/>
<path d="M93.41 242.53C144.999 242.53 186.82 238.031 186.82 232.48C186.82 226.93 144.999 222.43 93.41 222.43C41.8211 222.43 0 226.93 0 232.48C0 238.031 41.8211 242.53 93.41 242.53Z" fill="#D5D0CD"/>
</svg>
