<?xml version="1.0" encoding="UTF-8"?>
<svg id="Capa_2" data-name="Capa 2" xmlns="http://www.w3.org/2000/svg" xmlns:xlink="http://www.w3.org/1999/xlink" viewBox="0 0 1920 1080">
  <defs>
    <style>
      .cls-1 {
        clip-path: url(#clippath);
      }

      .cls-2 {
        fill: none;
      }

      .cls-2, .cls-3 {
        stroke-width: 0px;
      }

      .cls-4 {
        opacity: .46;
      }

      .cls-3 {
        fill: #60f;
      }
    </style>
    <clipPath id="clippath">
      <rect class="cls-2" width="1920" height="1080"/>
    </clipPath>
  </defs>
  <g id="Capa_1-2" data-name="Capa 1">
    <g class="cls-4">
      <g class="cls-1">
        <g id="NZnVf0.tif">
          <g>
            <path class="cls-3" d="M952.86,542.09c.09-.02.2-.02.29-.04-.09.05-.2.11-.29.18v-.15Z"/>
            <path class="cls-3" d="M958.5,547.87c.04-.09.09-.2.13-.29-.02.09-.02.2-.04.29h-.09Z"/>
            <path class="cls-3" d="M962.2,532.86c-.05.11-.09.2-.15.31.02-.11.02-.2.04-.31h.11Z"/>
            <path class="cls-3" d="M962.09,547.58c.05.09.11.2.16.29h-.13c-.02-.09-.02-.2-.04-.29Z"/>
            <path class="cls-3" d="M967.87,538.46v.13c-.09.02-.2.02-.29.04.09-.05.2-.11.29-.16Z"/>
            <path class="cls-3" d="M967.58,542.09c.09.02.2.02.29.04v.09c-.09-.04-.2-.09-.29-.13Z"/>
            <path class="cls-3" d="M952.86,538.54c.11.05.2.09.31.15-.11,0-.2,0-.31-.02v-.13Z"/>
            <path class="cls-3" d="M958.68,533.17c-.05-.11-.13-.2-.18-.31h.15c.02.11.02.2.04.31Z"/>
            <path class="cls-3" d="M958.65,532.86c.02.11.02.2.04.31l-.29-.31h.26Z"/>
            <path class="cls-3" d="M962.34,532.86l-.29.31c.02-.11.02-.2.04-.31h.26Z"/>
            <path class="cls-3" d="M1113.97-630.14c-3.31,26.54-6.5,53.09-9.96,79.63-6.35,48.55-12.85,97.07-19.27,145.61-6.5,49.14-13.05,98.28-19.51,147.42-6.95,53.08-13.82,106.15-20.79,159.23-6.37,48.54-12.87,97.07-19.25,145.61-6.42,48.85-12.77,97.71-19.18,146.56-6.94,52.76-13.93,105.53-20.86,158.29-6.48,49.14-12.96,98.28-19.34,147.44-1.43,11.04-2.49,22.15-3.72,33.22h-3.44c-3.35-27.36-6.57-54.74-10.08-82.07-6.35-49.18-12.9-98.3-19.36-147.46-6.33-48.24-12.65-96.49-19.02-144.73-6.41-48.54-12.87-97.07-19.29-145.61-6.5-49.14-13.03-98.28-19.49-147.42-6.95-52.76-13.82-105.55-20.75-158.31-6.48-49.14-13.03-98.28-19.49-147.42-6.95-53.08-13.87-106.15-20.75-159.23-1.32-10.25-2.45-20.52-3.66-30.76h307.23Z"/>
            <path class="cls-3" d="M952.86,538.66v3.42c-27.36,3.35-54.72,6.55-82.07,10.08-49.16,6.35-98.3,12.87-147.44,19.36-53.06,6.99-106.11,14.07-159.17,21.07-48.85,6.42-97.69,12.77-146.54,19.16-48.24,6.33-96.49,12.66-144.71,19.02-48.85,6.44-97.68,12.88-146.52,19.34-48.54,6.41-97.05,12.88-145.61,19.27-48.83,6.42-97.68,12.81-146.54,19.16-14.75,1.92-29.56,3.62-44.33,5.44v-307.25c26.54,3.31,53.09,6.5,79.63,9.97,48.54,6.33,97.07,12.83,145.61,19.25,49.12,6.52,98.26,13.05,147.4,19.51,53.06,6.97,106.15,13.8,159.21,20.79,48.85,6.42,97.66,13.03,146.51,19.45,53.06,6.99,106.15,13.8,159.21,20.79,53.66,7.05,107.32,14.24,160.98,21.32,51.85,6.86,103.7,13.69,155.56,20.46,2.89.38,5.87.27,8.82.37Z"/>
            <path class="cls-3" d="M953.16,542.05l-.29.27v-.24c.09-.02.2-.02.29-.04Z"/>
            <path class="cls-3" d="M953.17,538.68c-.11,0-.2,0-.31-.02v-.27l.31.29Z"/>
            <path class="cls-3" d="M1678.95-396.28c-11.05,14.46-21.67,28.4-32.32,42.3-225.26,293.58-450.53,587.16-675.76,880.77-1.99,2.6-3.44,5.58-5.14,8.4-.51.48-1.01.97-1.5,1.46-.62-1.26-1.26-2.53-1.89-3.79l-.29.31c.05-.11.09-.2.15-.31,4.89-10.78,10.08-21.45,14.62-32.38,143.78-346.93,287.5-693.87,431.24-1040.82,1.24-3.04,2.56-6.06,4.19-9.88,88.98,51.35,177.34,102.36,266.69,153.94Z"/>
            <path class="cls-3" d="M956.61,544.98c-.37.24-.73.46-1.12.64-3.81,2.42-7.83,4.54-11.38,7.27C639.13,786.85,334.21,1020.88,29.26,1254.88c-1.45,1.12-2.93,2.18-5.49,4.06-51.26-88.8-102.38-177.34-153.95-266.66,7.8-3.31,14.97-6.41,22.2-9.41,351.23-145.52,702.48-291.03,1053.69-436.59,2.53-1.06,4.8-2.69,7.16-4.06.09-.07.2-.13.29-.18l-.29.27c1.24.88,2.51,1.78,3.75,2.65Z"/>
            <path class="cls-3" d="M1678.89,1477.01c-88.82,51.28-177.38,102.42-266.73,154.01-9.37-22.55-18.47-44.36-27.53-66.2-139.44-336.59-278.86-673.19-418.34-1009.76-1.04-2.53-2.67-4.81-4.04-7.19-.05-.09-.11-.2-.16-.29l.24.29c.88-1.24,1.76-2.49,2.64-3.73.02,0,.02-.02.02-.02.11.18.22.37.33.55.11.18.22.37.31.57,1.87,3.08,3.46,6.35,5.64,9.17,234.87,306.22,469.77,612.41,704.69,918.62.73.95,1.43,1.94,2.95,3.99Z"/>
            <path class="cls-3" d="M2050.91,88.48c-7.89,3.31-15.36,6.46-22.86,9.57-350.99,145.44-702,290.89-1052.97,436.37-2.53,1.04-4.83,2.67-7.21,4.04-.09.05-.2.11-.29.16l.29-.24c-1.21-.59-2.43-1.15-3.64-1.74.49-.49.99-.99,1.5-1.46,7.38-5.31,14.92-10.41,22.13-15.96,300.66-230.68,601.29-461.37,901.93-692.08,2.12-1.61,4.28-3.15,7.21-5.31,51.35,88.95,102.36,177.33,153.92,266.64Z"/>
            <path class="cls-3" d="M2050.86,992.35c-51.39,89.04-102.38,177.38-153.92,266.66-14.53-11.11-28.46-21.72-42.37-32.39-293.07-224.91-586.11-449.82-879.18-674.71-3.13-2.4-6.52-4.45-9.77-6.66-.09-.2-.2-.38-.31-.57-.11-.18-.22-.37-.35-.53v-.02h.02c.97-.6,1.92-1.19,2.89-1.78l-.29-.26c.09.04.2.09.29.13,10.82,4.91,21.49,10.08,32.45,14.62,346.95,143.82,693.93,287.56,1040.91,431.34,3.02,1.24,6,2.6,9.63,4.17Z"/>
            <path class="cls-3" d="M958.63,547.58c-.04.09-.09.2-.13.29-4.89,10.82-10.07,21.47-14.62,32.43-143.78,346.93-287.5,693.87-431.23,1040.82-1.26,3.04-2.58,6.04-4.21,9.83-88.98-51.37-177.34-102.38-266.68-153.94,11.46-14.99,22.46-29.41,33.47-43.8,225.28-293.56,450.55-587.14,675.81-880.74,1.65-2.14,2.96-4.56,4.45-6.86.38-.18.75-.4,1.12-.64.59.95,1.19,1.92,1.78,2.89l.24-.29Z"/>
            <path class="cls-3" d="M967.87,538.59c-.09.02-.2.02-.29.04l.29-.24v.2Z"/>
            <path class="cls-3" d="M967.58,542.09c.09.02.2.02.29.04v.22l-.29-.26Z"/>
            <path class="cls-3" d="M2130.07,386.38v307.84c-16.97-2.14-33.77-4.17-50.53-6.37-49.16-6.46-98.32-12.98-147.46-19.49-48.55-6.42-97.09-12.94-145.65-19.33-48.85-6.42-97.73-12.72-146.58-19.14-53.08-6.99-106.13-14.13-159.23-21.12-48.85-6.42-97.73-12.7-146.58-19.13-53.08-7.01-106.13-14.15-159.21-21.16-53.08-6.99-106.17-13.93-159.26-20.79-15.89-2.03-31.81-3.72-47.71-5.56v-3.53c27.38-3.33,54.74-6.52,82.1-10.05,48.87-6.31,97.71-12.85,146.56-19.27,53.08-6.99,106.17-13.98,159.24-20.97,48.55-6.39,97.09-12.83,145.65-19.2,48.87-6.42,97.73-12.77,146.58-19.2,48.55-6.39,97.11-12.85,145.65-19.27,48.87-6.46,97.71-12.94,146.56-19.36,48.87-6.42,97.73-12.76,146.6-19.14,14.15-1.85,28.31-3.77,43.27-5.75Z"/>
            <path class="cls-3" d="M958.63,547.58c-.02.09-.02.2-.04.29h-.2l.24-.29Z"/>
            <path class="cls-3" d="M962.12,547.87c-.02-.09-.02-.2-.04-.29l.24.29h-.2Z"/>
            <path class="cls-3" d="M1114.3,1710.14h-307.78c2.14-16.95,4.17-33.75,6.39-50.53,6.44-48.87,12.96-97.71,19.42-146.56,6.48-48.85,12.96-97.69,19.38-146.56,6.42-48.87,12.7-97.73,19.14-146.6,6.99-53.08,14.13-106.13,21.12-159.23,6.42-48.85,12.7-97.73,19.13-146.6,6.99-53.08,14.15-106.13,21.14-159.21,7.01-53.09,13.95-106.17,20.79-159.28,2.05-15.89,3.73-31.79,5.56-47.71h3.53c3.33,27.38,6.53,54.76,10.05,82.1,6.35,49.18,12.9,98.34,19.36,147.49,6.33,48.26,12.66,96.52,19.03,144.77,6.41,48.55,12.85,97.11,19.27,145.66,7.14,53.97,14.29,107.96,21.38,161.95,6.97,53.08,13.82,106.17,20.81,159.26,6.99,53.08,14.15,106.13,21.14,159.21,6.42,48.87,12.74,97.75,19.09,146.62.64,4.81,1.3,9.61,2.05,15.21Z"/>
            <path class="cls-3" d="M952.86,538.39l.31.29c-.11-.05-.2-.09-.31-.15-10.8-4.89-21.47-10.08-32.39-14.62C573.5,380.1,226.52,236.34-120.46,92.58c-3.02-1.24-6-2.6-9.66-4.19C-78.75-.63-27.76-88.98,23.77-178.27c14.99,11.44,29.41,22.44,43.78,33.47C360.86,80.3,654.14,305.41,947.48,530.46c2.34,1.81,5.12,3.04,7.7,4.54.48.49.97.99,1.46,1.48-1.26.64-2.53,1.26-3.79,1.9Z"/>
            <path class="cls-3" d="M958.68,533.17l-.29-.31c-.59,1.21-1.15,2.42-1.74,3.62-.49-.49-.99-.99-1.46-1.48-15.14-20.19-30.09-40.52-45.44-60.54C688.26,185.7,466.69-103.03,245.15-391.76c-.9-1.17-1.72-2.4-3.28-4.56,88.75-51.24,177.11-102.25,266.44-153.83,1.45,3.2,2.86,6.06,4.06,9,147.35,355.62,294.69,711.24,442.06,1066.85,1.06,2.53,2.67,4.78,4.06,7.16.05.11.13.2.18.31Z"/>
            <path class="cls-3" d="M967.87,538.39v3.95c-.97.59-1.92,1.17-2.89,1.78h-.02v.02c-.88,1.24-1.76,2.49-2.64,3.73h-3.93c-.59-.97-1.19-1.94-1.78-2.89-1.24-.88-2.51-1.78-3.75-2.65v-3.93c1.26-.64,2.53-1.26,3.79-1.9.59-1.21,1.15-2.42,1.74-3.62h3.95c.62,1.26,1.26,2.53,1.89,3.79,1.21.59,2.43,1.15,3.64,1.74Z"/>
          </g>
        </g>
      </g>
    </g>
  </g>
</svg>