<?xml version="1.0" encoding="UTF-8"?>
<svg id="Capa_1" data-name="Capa 1" xmlns="http://www.w3.org/2000/svg" xmlns:xlink="http://www.w3.org/1999/xlink" viewBox="0 0 1440 1024">
  <defs>
    <style>
      .cls-1 {
        fill: url(#Degradado_sin_nombre_44);
      }

      .cls-1, .cls-2, .cls-3, .cls-4 {
        stroke-width: 0px;
      }

      .cls-2 {
        opacity: .8;
      }

      .cls-2, .cls-3, .cls-4 {
        fill: #fff;
      }

      .cls-3 {
        opacity: .6;
      }
    </style>
    <linearGradient id="Degradado_sin_nombre_44" data-name="Degradado sin nombre 44" x1="713.24" y1="-26.03" x2="713.24" y2="1025.7" gradientUnits="userSpaceOnUse">
      <stop offset="0" stop-color="#00c0f1"/>
      <stop offset="1" stop-color="#cdf6fc"/>
    </linearGradient>
  </defs>
  <rect class="cls-1" x="-23.02" y="-1.27" width="1472.51" height="1034.92"/>
  <g>
    <path class="cls-2" d="M1196.84,221.8c-2.39-34.38-32.35-61.59-68.95-61.59-5.35,0-10.54.59-15.56,1.7-17.85-25.54-48.37-42.38-83.06-42.38-55.03,0-99.63,42.38-99.63,94.66,0,1.44.03,2.88.1,4.29h-9.03c-8.49,0-16.15,3.42-21.7,8.98-5.56,5.56-8.98,13.24-8.98,21.73,0,14.92,12.09,27.03,27.03,27.03h286.12c4.89,0,9.31-1.98,12.5-5.19,3.21-3.19,5.19-7.61,5.19-12.5,0-16.41-9.9-30.53-24.04-36.72Z"/>
    <path class="cls-3" d="M1244.93,521.27c2.39-34.38,32.35-61.59,68.95-61.59,5.35,0,10.54.59,15.56,1.7,17.85-25.54,48.37-42.38,83.06-42.38,55.03,0,99.63,42.38,99.63,94.66,0,1.44-.03,2.88-.1,4.29h9.03c8.49,0,16.15,3.42,21.7,8.98,5.56,5.56,8.98,13.24,8.98,21.73,0,14.92-12.09,27.03-27.03,27.03h-36.95s-128.76,0-128.76,0h-21.73s-68.48,0-68.48,0h-30.19c-4.89,0-9.31-1.98-12.5-5.19-3.21-3.19-5.19-7.61-5.19-12.5,0-16.41,9.9-30.53,24.04-36.72Z"/>
    <path class="cls-4" d="M1292.13,191.9c-1.31-18.87-17.75-33.8-37.84-33.8-2.94,0-5.79.32-8.54.93-9.79-14.01-26.55-23.26-45.58-23.26-30.2,0-54.67,23.26-54.67,51.95,0,.79.01,1.58.06,2.36h-4.95c-4.66,0-8.86,1.88-11.91,4.93-3.05,3.05-4.93,7.27-4.93,11.93,0,8.19,6.63,14.83,14.83,14.83h157.02c2.68,0,5.11-1.09,6.86-2.85,1.76-1.75,2.85-4.18,2.85-6.86,0-9-5.43-16.75-13.2-20.15Z"/>
    <path class="cls-4" d="M1520.98,334.73c-1.31-18.87-17.75-33.8-37.84-33.8-2.94,0-5.79.32-8.54.93-9.79-14.01-26.55-23.26-45.58-23.26-30.2,0-54.67,23.26-54.67,51.95,0,.79.01,1.58.06,2.36h-4.95c-4.66,0-8.86,1.88-11.91,4.93-3.05,3.05-4.93,7.27-4.93,11.93,0,8.19,6.63,14.83,14.83,14.83h157.02c2.68,0,5.11-1.09,6.86-2.85,1.76-1.75,2.85-4.18,2.85-6.86,0-9-5.43-16.75-13.2-20.15Z"/>
    <path class="cls-4" d="M1430.19,516.32c-1.31-18.87-17.75-33.8-37.84-33.8-2.94,0-5.79.32-8.54.93-9.79-14.01-26.55-23.26-45.58-23.26-30.2,0-54.67,23.26-54.67,51.95,0,.79.01,1.58.06,2.36h-4.95c-4.66,0-8.86,1.88-11.91,4.93-3.05,3.05-4.93,7.27-4.93,11.93,0,8.19,6.63,14.83,14.83,14.83h157.02c2.68,0,5.11-1.09,6.86-2.85,1.76-1.75,2.85-4.18,2.85-6.86,0-9-5.43-16.75-13.2-20.15Z"/>
    <path class="cls-4" d="M1162.68,417.85c-1.31-18.87-17.75-33.8-37.84-33.8-2.94,0-5.79.32-8.54.93-9.79-14.01-26.55-23.26-45.58-23.26-30.2,0-54.67,23.26-54.67,51.95,0,.79.01,1.58.06,2.36h-4.95c-4.66,0-8.86,1.88-11.91,4.93-3.05,3.05-4.93,7.27-4.93,11.93,0,8.19,6.63,14.83,14.83,14.83h157.02c2.68,0,5.11-1.09,6.86-2.85,1.76-1.75,2.85-4.18,2.85-6.86,0-9-5.43-16.75-13.2-20.15Z"/>
  </g>
  <g>
    <path class="cls-2" d="M527.23,212.37c-2.24-32.14-30.24-57.57-64.44-57.57-5,0-9.86.55-14.54,1.59-16.68-23.87-45.21-39.61-77.64-39.61-51.44,0-93.12,39.61-93.12,88.48,0,1.35.02,2.69.1,4.01h-8.44c-7.93,0-15.1,3.2-20.29,8.39-5.19,5.19-8.39,12.38-8.39,20.31,0,13.94,11.3,25.26,25.26,25.26h267.43c4.57,0,8.7-1.85,11.68-4.86,3-2.98,4.85-7.11,4.85-11.68,0-15.34-9.25-28.53-22.47-34.32Z"/>
    <path class="cls-2" d="M-46.28,369.97c2.24-32.14,30.24-57.57,64.44-57.57,5,0,9.86.55,14.54,1.59,16.68-23.87,45.21-39.61,77.64-39.61,51.44,0,93.12,39.61,93.12,88.48,0,1.35-.02,2.69-.1,4.01h8.44c7.93,0,15.1,3.2,20.29,8.39,5.19,5.19,8.39,12.38,8.39,20.31,0,13.94-11.3,25.26-25.26,25.26h-34.54s-120.35,0-120.35,0h-20.31s-64.01,0-64.01,0h-28.22c-4.57,0-8.7-1.85-11.68-4.86-3-2.98-4.85-7.11-4.85-11.68,0-15.34,9.25-28.53,22.47-34.32Z"/>
    <path class="cls-4" d="M583.96,127.02c-1.23-17.64-16.59-31.59-35.37-31.59-2.74,0-5.41.3-7.98.87-9.15-13.1-24.81-21.74-42.61-21.74-28.23,0-51.1,21.74-51.1,48.56,0,.74.01,1.48.05,2.2h-4.63c-4.35,0-8.28,1.75-11.13,4.6-2.85,2.85-4.6,6.79-4.6,11.15,0,7.65,6.2,13.86,13.86,13.86h146.76c2.51,0,4.78-1.02,6.41-2.66,1.65-1.64,2.66-3.9,2.66-6.41,0-8.42-5.08-15.66-12.33-18.84Z"/>
    <path class="cls-4" d="M166.91,52.46c-1.23-17.64-16.59-31.59-35.37-31.59-2.74,0-5.41.3-7.98.87C114.41,8.64,98.75,0,80.96,0,52.73,0,29.85,21.74,29.85,48.56c0,.74.01,1.48.05,2.2h-4.63c-4.35,0-8.28,1.75-11.13,4.6-2.85,2.85-4.6,6.79-4.6,11.15,0,7.65,6.2,13.86,13.86,13.86h146.76c2.51,0,4.78-1.02,6.41-2.66,1.65-1.64,2.66-3.9,2.66-6.41,0-8.42-5.08-15.66-12.33-18.84Z"/>
    <path class="cls-4" d="M266.07,225.13c-1.23-17.64-16.59-31.59-35.37-31.59-2.74,0-5.41.3-7.98.87-9.15-13.1-24.81-21.74-42.61-21.74-28.23,0-51.1,21.74-51.1,48.56,0,.74.01,1.48.05,2.2h-4.63c-4.35,0-8.28,1.75-11.13,4.6-2.85,2.85-4.6,6.79-4.6,11.15,0,7.65,6.2,13.86,13.86,13.86h146.76c2.51,0,4.78-1.02,6.41-2.66,1.65-1.64,2.66-3.9,2.66-6.41,0-8.42-5.08-15.66-12.33-18.84Z"/>
    <path class="cls-4" d="M350.92,433.1c-1.23-17.64-16.59-31.59-35.37-31.59-2.74,0-5.41.3-7.98.87-9.15-13.1-24.81-21.74-42.61-21.74-28.23,0-51.1,21.74-51.1,48.56,0,.74.01,1.48.05,2.2h-4.63c-4.35,0-8.28,1.75-11.13,4.6-2.85,2.85-4.6,6.79-4.6,11.15,0,7.65,6.2,13.86,13.86,13.86h146.76c2.51,0,4.78-1.02,6.41-2.66,1.65-1.64,2.66-3.9,2.66-6.41,0-8.42-5.08-15.66-12.33-18.84Z"/>
  </g>
</svg>